<svg width="224" height="156" viewBox="0 0 224 156" fill="none" xmlns="http://www.w3.org/2000/svg">
  <g id="frames">
    <path d="M6 92.5H224L220.5 113L214 119L211 143.5H55.5L38 140L24 132L17 124L12 117L8.5 109L6 92.5Z" fill="#9D8C7D"/>
  </g>
  <g id="keel">
    <path d="M0 92H6.5L8.5 108.5L11.5 116.5L15.5 122L23.5 131L37.5 139.5L55 143.5H211L213.5 118.5L220.5 113L216.5 155.5H55L34 148.5L20 136L11.5 126L6.5 119L2 108.5L0 92Z" fill="#6D340A"/>
  </g>
  <g id="masts">
    <rect x="60" y="12" width="5" height="81" fill="#D87400"/>
    <path d="M41.5 12L82.5 19L82 22L41.5 15V12Z" fill="#D87400"/>
    <path d="M30.3213 44.28L92.8426 54.7245L91.9109 57.6779L30.1568 47.2755L30.3213 44.28Z" fill="#D87400"/>
    <path d="M87.076 46.765L91.3163 53.5494L77.1672 48.5288L77.1347 48.5172L77.1008 48.5103L60.1008 45.0103L60.0763 45.0052L60.0514 45.0027L45.5514 43.5027L45.5258 43.5H45.5H31.0664L31.9906 36.1064L34.4758 28.1536L36.4469 22.2406L41.7088 15.5435L81.4746 22.4166L81.0009 30.4706L80.9974 30.5292L81.0076 30.5869L82.5076 39.0869L82.5237 39.178L82.5713 39.2572L87.0713 46.7572L87.0712 46.7573L87.076 46.765Z" fill="white" stroke="#CCC9C9"/>
    <path d="M30.2362 47.5471L90.7394 57.7936L82.7073 63.5947L82.6077 63.6666L82.5528 63.7764L80.0528 68.7764L80.0282 68.8255L80.0149 68.8787L78.5149 74.8787L78.4912 74.9738L78.505 75.0707L79.906 84.8776L25.7997 74.5482L22.9774 70.3147L22.0118 64.0385L24.4558 56.2176L30.2362 47.5471Z" fill="white" stroke="#CCC9C9"/>
    <rect x="143" width="5" height="93" fill="#D87400"/>
    <path d="M126 4L167 11L166.5 14L126 7V4Z" fill="#D87400"/>
    <path d="M112.549 41L175.07 51.4445L174.138 54.3979L112.384 43.9955L112.549 41Z" fill="#D87400"/>
    <path d="M126 7L166.5 14L166 22.5L167.5 31L169.5 40L174.5 51L158.5 46L144.5 42.5L130.5 41H113L116 28L118.5 20L121.5 14L126 7Z" fill="white"/>
    <path d="M126 7L166.5 14L166 22.5L167.5 31L169.5 40L174.5 51L158.5 46L144.5 42.5L130.5 41H113L116 28L118.5 20L121.5 14L126 7Z" fill="white"/>
    <path d="M126 7L166.5 14L166 22.5L167.5 31L169.5 40L174.5 51L158.5 46L144.5 42.5L130.5 41H113L116 28L118.5 20L121.5 14L126 7Z" stroke="#CCC9C9"/>
    <path d="M112.736 44.5471L173.239 54.7936L165.207 60.5947L165.108 60.6666L165.053 60.7764L162.553 65.7764L162.528 65.8255L162.515 65.8787L161.015 71.8787L160.991 71.9738L161.005 72.0707L162.406 81.8776L108.3 71.5482L105.477 67.3147L104.512 61.0385L106.956 53.2176L112.736 44.5471Z" fill="white" stroke="#CCC9C9"/>
  </g>
</svg>
