<svg width="62" height="51" viewBox="0 0 62 51" fill="none" xmlns="http://www.w3.org/2000/svg">
<path d="M30 0H35V46.5V47L30 46V46.5V0Z" fill="#D9AA7E"/>
<path d="M13 4L54 11L53.5 14L13 7V4Z" fill="#D9AA7E"/>
<path d="M13 7L53.5 14L53 22.5L54.5 31L56.5 40L61.5 51L45.5 46L31.5 42.5L17.5 41H0L3 28L5.5 20L8.5 14L13 7Z" fill="white"/>
<path d="M13 7L53.5 14L53 22.5L54.5 31L56.5 40L61.5 51L45.5 46L31.5 42.5L17.5 41H0L3 28L5.5 20L8.5 14L13 7Z" fill="white"/>
<path d="M13 7L53.5 14L53 22.5L54.5 31L56.5 40L61.5 51L45.5 46L31.5 42.5L17.5 41H0L3 28L5.5 20L8.5 14L13 7Z" stroke="#CCC9C9"/>
</svg>
