<svg width="72" height="81" viewBox="0 0 72 81" fill="none" xmlns="http://www.w3.org/2000/svg">
<g id="item-99">
<path d="M38.5 37L43.5 38V40.5V81H38.5V40.5V37Z" fill="#6D340A"/>
<path d="M8.82129 32.28L71.3426 42.7246L70.4109 45.6779L8.65676 35.2755L8.82129 32.28Z" fill="#6D340A"/>
<path d="M8.73618 35.5471L69.2394 45.7936L61.2073 51.5947L61.1077 51.6666L61.0528 51.7764L58.5528 56.7764L58.5282 56.8255L58.5149 56.8787L57.0149 62.8787L56.9912 62.9738L57.005 63.0707L58.406 72.8776L4.29972 62.5482L1.47737 58.3147L0.511808 52.0385L2.95583 44.2176L8.73618 35.5471Z" fill="white" stroke="#CCC9C9"/>
</g>
<g id="item-98">
<path d="M38.5 0H43.5V38L38.5 37V0Z" fill="#FB752A"/>
<path d="M20 0L61 7L60.5 10L20 3V0Z" fill="#FB752A"/>
<path d="M65.576 34.765L69.8163 41.5494L55.6672 36.5288L55.6347 36.5172L55.6008 36.5103L38.6008 33.0103L38.5763 33.0052L38.5514 33.0027L24.0514 31.5027L24.0258 31.5H24H9.56639L10.4906 24.1064L12.9758 16.1536L14.9469 10.2406L20.2088 3.54351L59.9746 10.4166L59.5009 18.4706L59.4974 18.5292L59.5076 18.5869L61.0076 27.0869L61.0237 27.178L61.0713 27.2572L65.5713 34.7572L65.5712 34.7573L65.576 34.765Z" fill="white" stroke="#CCC9C9"/>
</g>
</svg>
