<svg width="72" height="93" viewBox="0 0 72 93" fill="none" xmlns="http://www.w3.org/2000/svg">
<g id="item-100">
<path d="M39 0H44V46.5V47L39 46V46.5V0Z" fill="#D9AA7E"/>
<path d="M22 4L63 11L62.5 14L22 7V4Z" fill="#D9AA7E"/>
<path d="M22 7L62.5 14L62 22.5L63.5 31L65.5 40L70.5 51L54.5 46L40.5 42.5L26.5 41H9L12 28L14.5 20L17.5 14L22 7Z" fill="white"/>
<path d="M22 7L62.5 14L62 22.5L63.5 31L65.5 40L70.5 51L54.5 46L40.5 42.5L26.5 41H9L12 28L14.5 20L17.5 14L22 7Z" fill="white"/>
<path d="M22 7L62.5 14L62 22.5L63.5 31L65.5 40L70.5 51L54.5 46L40.5 42.5L26.5 41H9L12 28L14.5 20L17.5 14L22 7Z" stroke="#CCC9C9"/>
</g>
<g id="item-101">
<path d="M39 46.5L44 47V93H39V46.5Z" fill="#D87400"/>
<path d="M8.54883 41L71.0701 51.4445L70.1385 54.3979L8.3843 43.9955L8.54883 41Z" fill="#D87400"/>
<path d="M8.73618 44.5471L69.2394 54.7936L61.2073 60.5947L61.1077 60.6666L61.0528 60.7764L58.5528 65.7764L58.5282 65.8255L58.5149 65.8787L57.0149 71.8787L56.9912 71.9738L57.005 72.0707L58.406 81.8776L4.29972 71.5482L1.47737 67.3147L0.511808 61.0385L2.95583 53.2176L8.73618 44.5471Z" fill="white" stroke="#CCC9C9"/>
</g>
</svg>
