<svg width="62" height="43" viewBox="0 0 62 43" fill="none" xmlns="http://www.w3.org/2000/svg">
<path d="M29.5 0H34.5V38L29.5 37V0Z" fill="#FB752A"/>
<path d="M11 0L52 7L51.5 10L11 3V0Z" fill="#FB752A"/>
<path d="M56.576 34.765L60.8163 41.5494L46.6672 36.5288L46.6347 36.5172L46.6008 36.5103L29.6008 33.0103L29.5763 33.0052L29.5514 33.0027L15.0514 31.5027L15.0258 31.5H15H0.566391L1.49059 24.1064L3.97584 16.1536L5.94686 10.2406L11.2088 3.54351L50.9746 10.4166L50.5009 18.4706L50.4974 18.5292L50.5076 18.5869L52.0076 27.0869L52.0237 27.178L52.0713 27.2572L56.5713 34.7572L56.5712 34.7573L56.576 34.765Z" fill="white" stroke="#CCC9C9"/>
</svg>
