<svg width="154" height="93" viewBox="0 0 154 93" fill="none" xmlns="http://www.w3.org/2000/svg">
<g id="item-49">
<rect x="38.5" y="12" width="5" height="81" fill="#D87400"/>
<path d="M20 12L61 19L60.5 22L20 15V12Z" fill="#D87400"/>
<path d="M8.82129 44.28L71.3426 54.7246L70.4109 57.6779L8.65676 47.2755L8.82129 44.28Z" fill="#D87400"/>
<path d="M65.576 46.765L69.8163 53.5494L55.6672 48.5288L55.6347 48.5172L55.6008 48.5103L38.6008 45.0103L38.5763 45.0052L38.5514 45.0027L24.0514 43.5027L24.0258 43.5H24H9.56639L10.4906 36.1064L12.9758 28.1536L14.9469 22.2406L20.2088 15.5435L59.9746 22.4166L59.5009 30.4706L59.4974 30.5292L59.5076 30.5869L61.0076 39.0869L61.0237 39.178L61.0713 39.2572L65.5713 46.7572L65.5712 46.7573L65.576 46.765Z" fill="white" stroke="#CCC9C9"/>
<path d="M8.73618 47.5471L69.2394 57.7936L61.2073 63.5947L61.1077 63.6666L61.0528 63.7764L58.5528 68.7764L58.5282 68.8255L58.5149 68.8787L57.0149 74.8787L56.9912 74.9738L57.005 75.0707L58.406 84.8776L4.29972 74.5482L1.47737 70.3147L0.511808 64.0385L2.95583 56.2176L8.73618 47.5471Z" fill="white" stroke="#CCC9C9"/>
</g>
<g id="item-50">
<rect x="121.5" width="5" height="93" fill="#6D340A"/>
<path d="M104.5 4L145.5 11L145 14L104.5 7V4Z" fill="#6D340A"/>
<path d="M91.0488 41L153.57 51.4445L152.638 54.3979L90.8843 43.9955L91.0488 41Z" fill="#6D340A"/>
<path d="M104.5 7L145 14L144.5 22.5L146 31L148 40L153 51L137 46L123 42.5L109 41H91.5L94.5 28L97 20L100 14L104.5 7Z" fill="white"/>
<path d="M104.5 7L145 14L144.5 22.5L146 31L148 40L153 51L137 46L123 42.5L109 41H91.5L94.5 28L97 20L100 14L104.5 7Z" fill="white"/>
<path d="M104.5 7L145 14L144.5 22.5L146 31L148 40L153 51L137 46L123 42.5L109 41H91.5L94.5 28L97 20L100 14L104.5 7Z" stroke="#CCC9C9"/>
<path d="M91.2362 44.5471L151.739 54.7936L143.707 60.5947L143.608 60.6666L143.553 60.7764L141.053 65.7764L141.028 65.8255L141.015 65.8787L139.515 71.8787L139.491 71.9738L139.505 72.0707L140.906 81.8776L86.7997 71.5482L83.9774 67.3147L83.0118 61.0385L85.4558 53.2176L91.2362 44.5471Z" fill="white" stroke="#CCC9C9"/>
</g>
</svg>
